Coordinates
version=1
nRows=16
nColumns=63
inDegrees=yes

Units are S.I. units (second, meters, Newtons, ...)
If the header above contains a line with 'inDegrees', this indicates whether rotational values are in degrees (yes) or radians (no).

endheader
time	pelvis_tilt	pelvis_list	pelvis_rotation	pelvis_tx	pelvis_ty	pelvis_tz	hip_flexion_r	hip_adduction_r	hip_rotation_r	knee_angle_r	knee_angle_r_beta	ankle_angle_r	subtalar_angle_r	mtp_angle_r	hip_flexion_l	hip_adduction_l	hip_rotation_l	knee_angle_l	knee_angle_l_beta	ankle_angle_l	subtalar_angle_l	mtp_angle_l	L5_S1_Flex_Ext	L5_S1_Lat_Bending	L5_S1_axial_rotation	L4_L5_Flex_Ext	L4_L5_Lat_Bending	L4_L5_axial_rotation	L3_L4_Flex_Ext	L3_L4_Lat_Bending	L3_L4_axial_rotation	L2_L3_Flex_Ext	L2_L3_Lat_Bending	L2_L3_axial_rotation	L1_L2_Flex_Ext	L1_L2_Lat_Bending	L1_L2_axial_rotation	L1_T12_Flex_Ext	L1_T12_Lat_Bending	L1_T12_axial_rotation	Abs_r3	Abs_r2	Abs_r1	Abs_t1	Abs_t2	neck_flexion	neck_bending	neck_rotation	arm_flex_r	arm_add_r	arm_rot_r	elbow_flex_r	pro_sup_r	wrist_flex_r	wrist_dev_r	arm_flex_l	arm_add_l	arm_rot_l	elbow_flex_l	pro_sup_l	wrist_flex_l	wrist_dev_l
0.000000	-1.213726	-4.495222	92.194501	0.439360	0.668849	1.064792	9.120195	-1.126698	-7.068010	11.837264	0.206599	32.968944	13.162171	0.000000	9.077167	-0.339041	-14.209516	12.283098	0.214381	35.967058	13.525438	0.000000	0.000844	0.030286	2.734143	0.001568	0.040280	2.905027	0.001387	0.073637	2.905027	0.000965	0.073637	2.392375	0.000784	0.061759	2.221492	0.000482	0.046913	2.050608	0.006029	0.342599	15.206485	0.000000	0.000000	28.568860	-4.813440	-5.512116	-3.347785	-12.320461	14.803220	31.056973	82.159654	-5.432325	0.002268	9.814668	-12.558079	55.821186	25.221130	80.130785	-7.717424	-1.191234
0.016949	-1.093880	-3.691862	92.171207	0.438040	0.670281	1.061749	7.722173	-0.964386	-7.261924	10.920371	0.190596	32.879360	13.554310	0.000000	7.766638	-0.157547	-11.350449	11.592851	0.202333	35.507183	10.089532	0.000000	-0.040754	0.077035	2.753617	-0.075684	0.102456	2.925718	-0.066954	0.187302	2.925718	-0.046578	0.187302	2.409415	-0.037844	0.157089	2.237314	-0.023287	0.119327	2.065213	-0.291101	0.871432	15.314792	0.000000	0.000000	27.716708	-4.047631	-4.506447	-4.449168	-12.359449	14.462205	30.795239	79.454678	-5.848485	-1.342281	10.719087	-12.886990	59.811528	25.057074	80.947990	-6.403025	-0.618186
0.033898	-0.991956	-3.045776	92.216775	0.437139	0.671479	1.059349	6.595241	-0.811683	-7.366180	10.191891	0.177882	32.739057	13.645715	0.000000	6.712225	-0.013752	-8.871012	11.011883	0.192194	35.064516	7.150724	0.000000	-0.073025	0.109288	2.759320	-0.135616	0.145353	2.931778	-0.119974	0.265722	2.931778	-0.083461	0.265722	2.414405	-0.067811	0.222859	2.241948	-0.041727	0.169287	2.069490	-0.521613	1.236284	15.346512	0.000000	0.000000	27.043803	-3.408454	-3.811458	-5.183928	-12.366441	14.383390	30.628710	77.764897	-6.269639	-2.236749	11.604194	-13.195195	62.822159	25.321505	81.786118	-5.753239	-0.321279
0.050847	-0.906659	-2.543299	92.323585	0.436610	0.672470	1.057531	5.715393	-0.668734	-7.389143	9.633393	0.168134	32.555393	13.469689	0.000000	5.890551	0.096260	-6.743688	10.529411	0.183773	34.638586	4.671885	0.000000	-0.096770	0.128506	2.752905	-0.179712	0.170913	2.924961	-0.158984	0.312450	2.924961	-0.110599	0.312450	2.408792	-0.089861	0.262050	2.236735	-0.055295	0.199056	2.064678	-0.691221	1.453689	15.310830	0.000000	0.000000	26.531470	-2.881606	-3.397428	-5.589593	-12.344479	14.539685	30.565445	76.957724	-6.677356	-2.715453	12.471874	-13.473802	64.951218	25.963887	82.633229	-5.680488	-0.266543
0.067797	-0.836697	-2.170767	92.484020	0.436405	0.673280	1.056233	5.058626	-0.535679	-7.339181	9.226446	0.161032	32.335724	13.059536	0.000000	5.278238	0.176405	-4.940958	10.134654	0.176883	34.228921	2.615885	0.000000	-0.112788	0.136153	2.736021	-0.209459	0.181083	2.907023	-0.185300	0.331041	2.907023	-0.128906	0.331041	2.394019	-0.104735	0.277642	2.223017	-0.064447	0.210900	2.052016	-0.805636	1.540184	15.216929	0.000000	0.000000	26.161033	-2.452785	-3.234635	-5.703687	-12.296606	14.904002	30.613504	76.900573	-7.053206	-2.812705	13.324008	-13.713920	66.296845	26.933681	83.477385	-6.097193	-0.420007
0.084746	-0.780774	-1.914514	92.690460	0.436477	0.673937	1.055395	4.600934	-0.412662	-7.224659	8.952617	0.156253	32.087407	12.448559	0.000000	4.851908	0.230600	-3.435303	9.816827	0.171336	33.835049	0.945597	0.000000	-0.121879	0.133688	2.710321	-0.226341	0.177805	2.879717	-0.200235	0.325049	2.879717	-0.139295	0.325049	2.371531	-0.113177	0.272616	2.202136	-0.069642	0.207083	2.032741	-0.870568	1.512305	15.073995	0.000000	0.000000	25.913815	-2.107689	-3.293355	-5.563737	-12.225864	15.449254	30.780948	77.460856	-7.378759	-2.562820	14.162479	-13.906654	66.957180	28.180350	84.306647	-6.915775	-0.747702
0.101695	-0.737598	-1.760876	92.935288	0.436779	0.674466	1.054956	4.318313	-0.299825	-7.053945	8.793475	0.153475	31.817798	11.670063	0.000000	4.588182	0.262760	-2.199206	9.565149	0.166943	33.456498	-0.376109	0.000000	-0.124841	0.122574	2.677456	-0.231843	0.163024	2.844798	-0.205102	0.298027	2.844798	-0.142681	0.298027	2.342774	-0.115928	0.249954	2.175433	-0.071334	0.189868	2.008092	-0.891730	1.386586	14.891210	0.000000	0.000000	25.771141	-1.832013	-3.543868	-5.207269	-12.135295	16.148352	31.075837	78.505986	-7.635583	-2.000112	14.989170	-14.043113	67.030361	29.653355	85.109076	-8.048654	-1.215657
0.118644	-0.705874	-1.696187	93.210885	0.437265	0.674895	1.054854	4.186758	-0.197311	-6.835406	8.730589	0.152378	31.534255	10.757351	0.000000	4.463683	0.276802	-1.205149	9.368837	0.163517	33.092798	-1.386362	0.000000	-0.122476	0.104274	2.639078	-0.227450	0.138684	2.804020	-0.201216	0.253531	2.804020	-0.139978	0.253531	2.309193	-0.113731	0.212635	2.144251	-0.069983	0.161520	1.979308	-0.874833	1.179563	14.677758	0.000000	0.000000	25.714335	-1.611456	-3.956451	-4.671809	-12.027943	16.974208	31.506230	79.903377	-7.805250	-1.158894	15.805963	-14.114404	66.614528	31.302159	85.872734	-9.408252	-1.789903
0.135593	-0.684309	-1.706785	93.509632	0.437887	0.675248	1.055027	4.182264	-0.105262	-6.577406	8.745526	0.152638	31.244134	9.743726	0.000000	4.455033	0.276641	-0.425613	9.217107	0.160869	32.743476	-2.122290	0.000000	-0.115582	0.080247	2.596836	-0.214647	0.106729	2.759138	-0.189889	0.195113	2.759138	-0.132098	0.195113	2.272232	-0.107329	0.163640	2.109929	-0.066043	0.124303	1.947627	-0.825589	0.907772	14.442824	0.000000	0.000000	25.724721	-1.431716	-4.501382	-3.994882	-11.906848	17.899733	32.080188	81.520441	-7.869327	-0.073482	16.614742	-14.111635	65.807820	33.076224	86.585683	-10.906989	-2.436469
0.152542	-0.671609	-1.779003	93.823912	0.438598	0.675555	1.055416	4.280828	-0.023821	-6.288314	8.819857	0.153936	30.954792	8.662494	0.000000	4.538852	0.266194	0.166920	9.099178	0.158811	32.408061	-2.621021	0.000000	-0.104959	0.051957	2.552383	-0.194919	0.069103	2.711907	-0.172437	0.126328	2.711907	-0.119957	0.126328	2.233336	-0.097465	0.105951	2.073812	-0.059973	0.080481	1.914288	-0.749710	0.587747	14.195591	0.000000	0.000000	25.783623	-1.278488	-5.148940	-3.214014	-11.775055	18.897840	32.805770	83.224592	-7.809385	1.221812	17.417388	-14.025913	64.708377	34.925013	87.235982	-12.457286	-3.121386
0.169492	-0.666479	-1.899177	94.146106	0.439352	0.675840	1.055959	4.458443	0.046869	-5.976495	8.935148	0.155948	30.673585	7.546957	0.000000	4.691764	0.249377	0.599969	9.004266	0.157154	32.086082	-2.919686	0.000000	-0.091406	0.020865	2.507371	-0.169751	0.027750	2.664081	-0.150172	0.050731	2.664081	-0.104468	0.050731	2.193949	-0.084880	0.042547	2.037239	-0.052230	0.032319	1.880528	-0.652906	0.236026	13.945243	0.000000	0.000000	25.872365	-1.137471	-5.869401	-2.366732	-11.635606	19.941440	33.691038	84.883243	-7.606992	2.692673	18.215785	-13.848346	63.414338	36.797987	87.811694	-13.971564	-3.810682
0.186441	-0.678870	-2.030059	94.493766	0.439984	0.676221	1.056596	4.652231	0.088424	-5.671619	9.046358	0.157889	30.425835	6.421392	0.000000	4.857532	0.260305	1.035653	8.897152	0.155285	31.724029	-3.196852	0.000000	-0.077807	-0.010779	2.469683	-0.144495	-0.014337	2.624038	-0.127829	-0.026209	2.624038	-0.088926	-0.026209	2.160973	-0.072252	-0.021981	2.006617	-0.044459	-0.016697	1.852262	-0.555767	-0.121939	13.735635	0.000000	0.000000	25.873404	-0.855145	-6.598480	-1.625662	-11.438180	20.847613	34.757166	86.652159	-6.725357	4.271243	19.179809	-13.486470	62.384933	38.470211	88.368485	-15.278655	-4.471392
0.203390	-0.681056	-2.196257	94.829651	0.440523	0.676632	1.057253	4.896185	0.133411	-5.371368	9.146958	0.159645	30.220706	5.390681	0.000000	5.070079	0.242638	1.193377	8.814562	0.153843	31.441230	-3.119510	0.000000	-0.061561	-0.039215	2.429206	-0.114324	-0.052156	2.581031	-0.101138	-0.095347	2.581031	-0.070358	-0.095347	2.125555	-0.057165	-0.079967	1.973730	-0.035176	-0.060744	1.821904	-0.439722	-0.443608	13.510513	0.000000	0.000000	25.890605	-0.611981	-7.305388	-0.860188	-11.250443	21.792120	36.015630	87.735569	-5.780744	6.028214	20.101811	-12.983599	61.194481	39.998820	89.118771	-16.404494	-5.278071
0.220339	-0.665825	-2.367254	95.171270	0.440849	0.677107	1.057851	5.138441	0.181932	-5.133078	9.211507	0.160771	30.057877	4.502103	0.000000	5.276209	0.232763	1.455877	8.700178	0.151847	31.166030	-3.154818	0.000000	-0.045208	-0.062345	2.389856	-0.083957	-0.082919	2.539222	-0.074273	-0.151586	2.539222	-0.051669	-0.151586	2.091124	-0.041981	-0.127134	1.941758	-0.025832	-0.096572	1.792392	-0.322920	-0.705260	13.291664	0.000000	0.000000	25.916246	-0.386533	-7.980891	-0.151502	-11.096293	22.742300	37.530479	87.938670	-4.783284	7.857354	21.057473	-12.324907	60.396508	41.309880	89.677325	-17.278887	-6.173289
0.237288	-0.650727	-2.521301	95.472755	0.440995	0.677669	1.058297	5.361701	0.210103	-5.052522	9.268250	0.161761	29.984784	3.946440	0.000000	5.443626	0.217437	1.509810	8.577433	0.149704	30.953505	-2.942284	0.000000	-0.030433	-0.081369	2.356225	-0.056518	-0.108221	2.503489	-0.049999	-0.197841	2.503489	-0.034782	-0.197841	2.061697	-0.028260	-0.165928	1.914433	-0.017390	-0.126041	1.767169	-0.217383	-0.920464	13.104617	0.000000	0.000000	25.929962	-0.152543	-8.597498	0.480049	-10.935723	23.521269	39.274099	87.393846	-3.667081	9.789640	21.903867	-11.521255	59.542938	42.479127	90.079030	-17.446387	-6.757118
0.254237	-0.637924	-2.649327	95.722144	0.440986	0.678314	1.058530	5.539620	0.231135	-4.963596	9.290984	0.162158	29.944875	3.502587	0.000000	5.550878	0.217545	1.589374	8.425054	0.147045	30.746737	-2.809871	0.000000	-0.016432	-0.097044	2.331633	-0.030516	-0.129069	2.477360	-0.026996	-0.235954	2.477360	-0.018780	-0.235954	2.040179	-0.015259	-0.197893	1.894452	-0.009389	-0.150322	1.748725	-0.117371	-1.097787	12.967845	0.000000	0.000000	25.901864	0.095811	-9.178640	1.021938	-10.807188	24.238299	41.283675	85.580067	-2.735666	11.653035	22.655018	-10.624792	58.819353	43.543733	90.108739	-16.918319	-6.830863
